<?xml version="1.0" encoding="UTF-8" standalone="no"?>
<svg
   xmlns:dc="http://purl.org/dc/elements/1.1/"
   xmlns:cc="http://creativecommons.org/ns#"
   xmlns:rdf="http://www.w3.org/1999/02/22-rdf-syntax-ns#"
   xmlns:svg="http://www.w3.org/2000/svg"
   xmlns="http://www.w3.org/2000/svg"
   xmlns:sodipodi="http://sodipodi.sourceforge.net/DTD/sodipodi-0.dtd"
   xmlns:inkscape="http://www.inkscape.org/namespaces/inkscape"
   height="16px"
   viewBox="0 0 16 16"
   width="16px"
   version="1.1"
   id="svg2"
   sodipodi:docname="addBackgroundToSelection.svg"
   inkscape:version="0.92.4 (5da689c313, 2019-01-14)">
  <metadata
     id="metadata9">
    <rdf:RDF>
      <cc:Work
         rdf:about="">
        <dc:format>image/svg+xml</dc:format>
        <dc:type
           rdf:resource="http://purl.org/dc/dcmitype/StillImage" />
        <dc:title></dc:title>
      </cc:Work>
    </rdf:RDF>
  </metadata>
  <defs
     id="defs2" />
  <sodipodi:namedview
     id="namedview2"
     pagecolor="#ffffff"
     bordercolor="#000000"
     borderopacity="0.25"
     inkscape:showpageshadow="2"
     inkscape:pageopacity="0.0"
     inkscape:pagecheckerboard="0"
     inkscape:deskcolor="#d1d1d1"
     inkscape:zoom="48.5625"
     inkscape:cx="4.6715226"
     inkscape:cy="8.3839934"
     inkscape:window-width="1920"
     inkscape:window-height="1051"
     inkscape:window-x="-9"
     inkscape:window-y="-9"
     inkscape:window-maximized="1"
     inkscape:current-layer="svg2"
     showgrid="false"
     showguides="true"
     inkscape:guide-bbox="true">
    <sodipodi:guide
       position="8.1544402,3.4800515"
       orientation="0,1"
       id="guide1003"
       inkscape:locked="false" />
    <sodipodi:guide
       position="4.9009009,1.3590734"
       orientation="0,1"
       id="guide1071"
       inkscape:locked="false" />
    <sodipodi:guide
       position="8.030888,20.715573"
       orientation="1,0"
       id="guide1118"
       inkscape:locked="false" />
    <sodipodi:guide
       position="4.1184041,7.989704"
       orientation="0,1"
       id="guide1120"
       inkscape:locked="false" />
  </sodipodi:namedview>
  <rect
     style="opacity:1;fill:#fcff00;fill-opacity:1;fill-rule:evenodd;stroke:#ff0a00;stroke-width:0;stroke-linecap:square;stroke-linejoin:miter;stroke-miterlimit:20.5;stroke-dasharray:none;stroke-dashoffset:2.16149998;stroke-opacity:1;paint-order:markers fill stroke"
     id="rect1089"
     width="15.940825"
     height="8.3307724"
     x="0.039883975"
     y="4.0244384"
     rx="1.4896808"
     ry="0.10097907" />
  <g
     aria-label="Back"
     transform="scale(0.9537329,1.0485116)"
     style="font-style:normal;font-weight:normal;font-size:6.35458517px;line-height:1.25;font-family:sans-serif;letter-spacing:0px;word-spacing:0px;fill:#0000ff;fill-opacity:1;stroke:none;stroke-width:1.19148481"
     id="text1093">
    <path
       d="m 4.199247,8.4146102 q 0,0.3351051 -0.1365243,0.5988452 Q 3.9293013,9.2771955 3.6934866,9.4509537 3.420438,9.6557401 3.0915386,9.7426192 2.765742,9.8294983 2.2630843,9.8294983 H 0.24624823 V 5.2093922 H 2.039681 q 0.5585084,0 0.8160429,0.037234 0.2606373,0.037234 0.5150689,0.1644497 0.2637401,0.1334215 0.3909559,0.3599277 0.1303187,0.2234034 0.1303187,0.5119661 0,0.335105 -0.1768611,0.5926395 -0.176861,0.2544316 -0.4995547,0.3971616 v 0.024823 Q 3.668664,7.3875752 3.9324041,7.6699322 4.199247,7.9522893 4.199247,8.4146102 Z M 2.6726572,6.5156814 q 0,-0.1148045 -0.058954,-0.229609 Q 2.5578527,6.1712679 2.4120199,6.115417 2.2817013,6.0657718 2.0862233,6.062669 1.8938482,6.0564633 1.543229,6.0564633 H 1.4315273 v 0.9773899 h 0.1861695 q 0.282357,0 0.4809378,-0.00931 0.1985808,-0.00931 0.3133853,-0.062056 Q 2.5733668,6.8911232 2.623012,6.7794215 2.6726572,6.664617 2.6726572,6.5156814 Z m 0.2916655,1.8803118 q 0,-0.2203005 -0.086879,-0.3382079 Q 2.7936674,7.9367752 2.5888809,7.8778215 2.4492538,7.8374848 2.2041307,7.834382 1.9590075,7.8312791 1.6921646,7.8312791 H 1.4315273 v 1.151148 h 0.086879 q 0.5026576,0 0.7198553,-0.0031 0.2171978,-0.0031 0.4002644,-0.080673 0.1861695,-0.077571 0.2544317,-0.2047865 0.071365,-0.1303186 0.071365,-0.2978712 z"
       style="font-style:normal;font-variant:normal;font-weight:bold;font-stretch:normal;font-size:6.35458517px;font-family:sans-serif;-inkscape-font-specification:'sans-serif, Bold';font-variant-ligatures:normal;font-variant-caps:normal;font-variant-numeric:normal;font-feature-settings:normal;text-align:start;writing-mode:lr-tb;text-anchor:start;fill:#0000ff;fill-opacity:1;stroke-width:1.19148481"
       id="path9326" />
    <path
       d="m 7.1345195,8.9203706 v -0.726061 q -0.2265062,0.018617 -0.4902463,0.052748 -0.2637401,0.031028 -0.4002644,0.074468 -0.1675526,0.052748 -0.2575345,0.1551413 -0.086879,0.09929 -0.086879,0.2637401 0,0.1085989 0.018617,0.176861 0.018617,0.068262 0.093085,0.1303186 0.071365,0.062057 0.1706554,0.093085 0.09929,0.027925 0.3102825,0.027925 0.1675525,0 0.3382079,-0.068262 0.1737581,-0.068262 0.3040768,-0.1799639 z m 0,0.5398915 Q 7.0445376,9.5285243 6.9111161,9.6247119 6.7776946,9.7208994 6.6597873,9.7767503 6.4953376,9.8512181 6.3184766,9.8853491 6.1416156,9.922583 5.9306235,9.922583 q -0.496452,0 -0.8315571,-0.3071796 -0.3351051,-0.3071797 -0.3351051,-0.7850147 0,-0.3816474 0.1706554,-0.6236678 Q 5.1052721,7.9647006 5.4186574,7.8250735 5.7289399,7.6854464 6.1881579,7.6264927 6.647376,7.567539 7.1407251,7.5396136 v -0.018617 q 0,-0.2885627 -0.2358146,-0.3971615 -0.2358147,-0.1117017 -0.6950328,-0.1117017 -0.2761514,0 -0.5895367,0.09929 -0.3133853,0.096188 -0.4499096,0.1489356 H 5.0680382 V 6.4194938 q 0.176861,-0.046542 0.5740226,-0.1085988 0.4002644,-0.065159 0.8005288,-0.065159 0.9525672,0 1.3745513,0.2947683 0.425087,0.2916655 0.425087,0.9184362 V 9.8294983 H 7.1345195 Z"
       style="font-style:normal;font-variant:normal;font-weight:bold;font-stretch:normal;font-size:6.35458517px;font-family:sans-serif;-inkscape-font-specification:'sans-serif, Bold';font-variant-ligatures:normal;font-variant-caps:normal;font-variant-numeric:normal;font-feature-settings:normal;text-align:start;writing-mode:lr-tb;text-anchor:start;fill:#0000ff;fill-opacity:1;stroke-width:1.19148481"
       id="path9328" />
    <path
       d="m 11.084416,9.922583 q -0.456115,0 -0.83466,-0.1085988 Q 9.8743141,9.7053853 9.5950599,9.4788791 9.3189085,9.2523729 9.1668701,8.9079593 9.0148317,8.5635458 9.0148317,8.1012249 q 0,-0.4871435 0.1613469,-0.8408655 0.1644497,-0.3537221 0.4561152,-0.5864339 0.2823571,-0.2203006 0.6515932,-0.3226938 0.369236,-0.1023932 0.766398,-0.1023932 0.356825,0 0.657799,0.077571 0.300974,0.077571 0.561611,0.2016836 v 0.9525672 h -0.158244 q -0.06516,-0.055851 -0.158244,-0.1303186 -0.08998,-0.074468 -0.223404,-0.1458328 -0.127215,-0.068262 -0.279254,-0.1117017 -0.152038,-0.046542 -0.353722,-0.046542 -0.446807,0 -0.688827,0.2854598 -0.238918,0.2823571 -0.238918,0.7695006 0,0.5026576 0.245124,0.7632949 0.248226,0.2606373 0.701238,0.2606373 0.210992,0 0.378545,-0.046542 0.170655,-0.049645 0.282357,-0.1148045 0.105496,-0.062056 0.186169,-0.1303187 0.08067,-0.068262 0.148936,-0.1334214 h 0.158244 v 0.9525672 q -0.26374,0.124113 -0.552303,0.1954779 -0.28546,0.074468 -0.632976,0.074468 z"
       style="font-style:normal;font-variant:normal;font-weight:bold;font-stretch:normal;font-size:6.35458517px;font-family:sans-serif;-inkscape-font-specification:'sans-serif, Bold';font-variant-ligatures:normal;font-variant-caps:normal;font-variant-numeric:normal;font-feature-settings:normal;text-align:start;writing-mode:lr-tb;text-anchor:start;fill:#0000ff;fill-opacity:1;stroke-width:1.19148481"
       id="path9330" />
    <path
       d="M 16.703631,9.8294983 H 15.403548 L 14.426158,8.312217 14.122081,8.6814531 V 9.8294983 H 13.005064 V 5.0015029 h 1.117017 v 2.8825242 l 1.203896,-1.539001 h 1.287672 l -1.253541,1.5017671 z"
       style="font-style:normal;font-variant:normal;font-weight:bold;font-stretch:normal;font-size:6.35458517px;font-family:sans-serif;-inkscape-font-specification:'sans-serif, Bold';font-variant-ligatures:normal;font-variant-caps:normal;font-variant-numeric:normal;font-feature-settings:normal;text-align:start;writing-mode:lr-tb;text-anchor:start;fill:#0000ff;fill-opacity:1;stroke-width:1.19148481"
       id="path9332" />
  </g>
</svg>
